<?xml version="1.0" encoding="utf-8"?>
<!-- Generator: Adobe Illustrator 21.1.0, SVG Export Plug-In . SVG Version: 6.00 Build 0)  -->
<svg version="1.1" id="Capa_1" xmlns="http://www.w3.org/2000/svg" xmlns:xlink="http://www.w3.org/1999/xlink" x="0px" y="0px"
	 viewBox="0 0 35 35" style="enable-background:new 0 0 35 35;" xml:space="preserve">
<style type="text/css">
	.st0{fill:none;stroke:#646464;stroke-width:2;stroke-miterlimit:10;}
	.st1{fill:none;stroke:#646464;stroke-width:2;stroke-linecap:round;stroke-miterlimit:10;}
</style>
<g>
	<circle class="st0" cx="17.5" cy="18.6" r="1.7"/>
	<path class="st1" d="M19.8,22.6c1.3-0.8,2.2-2.3,2.2-3.9c0-2.5-2-4.6-4.6-4.6s-4.6,2-4.6,4.6c0,1.7,0.9,3.1,2.2,3.9"/>
	<path class="st1" d="M25.9,32.9C30.8,30,34,24.7,34,18.6c0-9.1-7.4-16.5-16.5-16.5S1,9.5,1,18.6C1,24.7,4.2,30,9.1,32.9"/>
	<path class="st1" d="M23.9,29.4c3.7-2.2,6.2-6.2,6.2-10.8c0-6.9-5.6-12.5-12.5-12.5S5,11.7,5,18.6c0,4.6,2.5,8.6,6.2,10.8"/>
	<path class="st1" d="M21.8,26c2.5-1.5,4.2-4.2,4.2-7.4c0-4.7-3.8-8.5-8.5-8.5S9,13.9,9,18.6c0,3.1,1.7,5.9,4.2,7.4"/>
</g>
</svg>
